<svg width="25" height="25" viewBox="0 0 25 25" fill="none" xmlns="http://www.w3.org/2000/svg">
<g clip-path="url(#clip0_526_792)">
<mask id="mask0_526_792" style="mask-type:alpha" maskUnits="userSpaceOnUse" x="0" y="0" width="25" height="25">
<path d="M2.42025 1.71933C1.87761 2.4138 1.61411 3.34908 1.08727 5.21933C0.71273 6.48313 0.525307 7.11503 0.387117 7.75675C0.221985 8.52314 0.10925 9.29988 0.0496933 10.0816C0 10.7362 0 11.3951 0 12.7132V17.8388C0 20.3456 0 21.5988 0.48773 22.5563C0.916846 23.3984 1.60155 24.0831 2.44371 24.5121C3.40123 25 4.65445 25 7.1612 25H17.8388C20.3456 25 21.5988 25 22.5563 24.5121C23.3984 24.083 24.083 23.3984 24.5121 22.5563C25 21.5988 25 20.3456 25 17.8388V12.7132C25 11.3951 25 10.736 24.9502 10.0816C24.8906 9.29989 24.7779 8.52315 24.6129 7.75675C24.4747 7.11518 24.2874 6.48328 23.9127 5.21948C23.3859 3.34908 23.1224 2.4138 22.5796 1.71948C22.1006 1.10658 21.4701 0.629129 20.7503 0.334202C19.9347 0 18.963 0 17.0198 0H7.98021C6.03681 0 5.06534 0 4.24969 0.334202C3.52991 0.629154 2.89943 1.1066 2.4204 1.71948L2.42025 1.71933Z" fill="#FFFC95"/>
</mask>
<g mask="url(#mask0_526_792)">
<g filter="url(#filter0_i_526_792)">
<path d="M0 11.8286H25V17.8387C25 20.3455 25 21.5987 24.5121 22.5562C24.083 23.3983 23.3984 24.083 22.5563 24.512C21.5988 24.9999 20.3456 24.9999 17.8388 24.9999H7.1612C4.65445 24.9999 3.40123 24.9999 2.44371 24.512C1.60161 24.083 0.916959 23.3983 0.487883 22.5562C0 21.5987 0 20.3455 0 17.8387V11.8286Z" fill="url(#paint0_linear_526_792)"/>
</g>
<g filter="url(#filter1_df_526_792)">
<path d="M1.75023 1.72209C1.17171 2.41764 0.890725 3.3543 0.328761 5.22761C-0.0212387 6.39479 -0.196392 6.97822 -0.333509 7.56902C-0.572368 8.59715 -0.725957 9.64323 -0.792711 10.6966C-0.831055 11.3018 -0.831055 11.911 -0.831055 13.1294V15.3673C-0.782742 16.6798 -0.377987 17.694 0.458362 18.7587C0.91327 19.3377 1.87677 20.1061 2.98766 20.1061C4.60928 20.1061 5.62753 19.504 6.60576 18.9089L6.66112 18.8752C7.61925 18.292 8.55683 17.7212 9.98014 17.8008C11.6021 17.802 12.7458 18.8178 13.7547 19.7992C13.8332 19.8758 13.911 19.952 13.988 20.0275C14.4105 20.4417 14.8131 20.8365 15.2285 21.1445C15.718 21.5074 16.212 21.7391 16.7577 21.7391C17.6315 21.7391 18.3188 21.3311 18.9272 20.7C19.5044 20.1014 20.0007 19.3126 20.5107 18.502L20.5127 18.4988L20.5999 18.3603C21.1384 17.5052 21.6976 16.6383 22.3817 15.9864C23.0686 15.3314 23.8878 14.887 24.945 14.887H25.8312C25.8306 14.1847 25.8304 13.3387 25.8304 12.5127C25.8304 11.2262 25.8304 10.583 25.7881 9.94739C25.7507 9.38262 25.6881 8.8198 25.6007 8.26058C25.5025 7.63129 25.362 7.00675 25.0809 5.75752L25.0657 5.68972C24.6094 3.6612 24.3812 2.64693 23.8087 1.88911C23.3039 1.22071 22.6136 0.695092 21.8128 0.369325C20.905 0 19.801 0 17.5933 0H7.67983C5.60744 0 4.57125 0 3.70115 0.334663C2.93352 0.630061 2.26097 1.10828 1.75023 1.72209Z" fill="#FBE34C"/>
</g>
<g filter="url(#filter2_iif_526_792)">
<path d="M2.15583 4.21454C2.53711 2.88693 2.72791 2.22328 3.11564 1.73065C3.45799 1.29583 3.90736 0.957333 4.41978 0.748284C5.00046 0.511475 5.69095 0.511475 7.07208 0.511475H17.9874C19.3673 0.511475 20.0574 0.511475 20.6376 0.747978C21.1497 0.956771 21.599 1.29482 21.9414 1.72911C22.3293 2.22114 22.5204 2.88417 22.9024 4.21025L23.0409 4.69062C23.4936 6.26148 23.7199 7.0469 23.554 7.71332C23.4106 8.28908 23.0538 8.81761 22.5735 9.16577C22.0176 9.56899 21.2205 9.6512 19.6262 9.81562C17.2584 10.0599 14.5307 10.2941 12.7747 10.2941C11.0952 10.2941 8.08742 10.0395 5.49448 9.78433C3.87285 9.62482 3.06196 9.54506 2.50352 9.14292C2.01512 8.78864 1.66606 8.27464 1.51687 7.69C1.34923 7.02252 1.57745 6.22835 2.03374 4.6397L2.15583 4.21454Z" fill="url(#paint1_linear_526_792)"/>
</g>
<g filter="url(#filter3_f_526_792)">
<path d="M18.9262 18.5682C18.9262 19.6182 17.9673 20.9079 16.7843 20.9079C15.6013 20.9079 13.1079 18.0096 13.1079 16.9598C13.1079 15.9099 14.9619 18.5682 16.1449 18.5682C17.3278 18.5682 18.9262 17.5184 18.9262 18.5682Z" fill="white"/>
</g>
<g filter="url(#filter4_f_526_792)">
<path d="M8.05633 17.0716C8.05633 17.7759 4.04789 20.1048 3.14038 20.1048C2.23271 20.1048 0.319824 18.1604 0.319824 17.4559C0.319824 16.7516 2.00173 17.7211 2.90924 17.7211C5.08317 18.4463 8.05633 16.3671 8.05633 17.0716Z" fill="white" fill-opacity="0.7"/>
</g>
</g>
</g>
<defs>
<filter id="filter0_i_526_792" x="0" y="9.53698" width="25" height="15.463" filterUnits="userSpaceOnUse" color-interpolation-filters="sRGB">
<feFlood flood-opacity="0" result="BackgroundImageFix"/>
<feBlend mode="normal" in="SourceGraphic" in2="BackgroundImageFix" result="shape"/>
<feColorMatrix in="SourceAlpha" type="matrix" values="0 0 0 0 0 0 0 0 0 0 0 0 0 0 0 0 0 0 127 0" result="hardAlpha"/>
<feOffset dy="-2.29163"/>
<feGaussianBlur stdDeviation="1.39131"/>
<feComposite in2="hardAlpha" operator="arithmetic" k2="-1" k3="1"/>
<feColorMatrix type="matrix" values="0 0 0 0 0.934961 0 0 0 0 0.742845 0 0 0 0 0 0 0 0 1 0"/>
<feBlend mode="normal" in2="shape" result="effect1_innerShadow_526_792"/>
</filter>
<filter id="filter1_df_526_792" x="-5.08686" y="-3.92834" width="35.1737" height="30.2506" filterUnits="userSpaceOnUse" color-interpolation-filters="sRGB">
<feFlood flood-opacity="0" result="BackgroundImageFix"/>
<feColorMatrix in="SourceAlpha" type="matrix" values="0 0 0 0 0 0 0 0 0 0 0 0 0 0 0 0 0 0 127 0" result="hardAlpha"/>
<feOffset dy="0.32746"/>
<feGaussianBlur stdDeviation="2.1279"/>
<feComposite in2="hardAlpha" operator="out"/>
<feColorMatrix type="matrix" values="0 0 0 0 0.845345 0 0 0 0 0.65787 0 0 0 0 0 0 0 0 1 0"/>
<feBlend mode="normal" in2="BackgroundImageFix" result="effect1_dropShadow_526_792"/>
<feBlend mode="normal" in="SourceGraphic" in2="effect1_dropShadow_526_792" result="shape"/>
<feGaussianBlur stdDeviation="0.61389" result="effect2_foregroundBlur_526_792"/>
</filter>
<filter id="filter2_iif_526_792" x="-1.15698" y="-2.10742" width="27.3843" height="15.0205" filterUnits="userSpaceOnUse" color-interpolation-filters="sRGB">
<feFlood flood-opacity="0" result="BackgroundImageFix"/>
<feBlend mode="normal" in="SourceGraphic" in2="BackgroundImageFix" result="shape"/>
<feColorMatrix in="SourceAlpha" type="matrix" values="0 0 0 0 0 0 0 0 0 0 0 0 0 0 0 0 0 0 127 0" result="hardAlpha"/>
<feOffset dy="-1.14572"/>
<feGaussianBlur stdDeviation="2.65993"/>
<feComposite in2="hardAlpha" operator="arithmetic" k2="-1" k3="1"/>
<feColorMatrix type="matrix" values="0 0 0 0 1 0 0 0 0 1 0 0 0 0 1 0 0 0 0.9 0"/>
<feBlend mode="normal" in2="shape" result="effect1_innerShadow_526_792"/>
<feColorMatrix in="SourceAlpha" type="matrix" values="0 0 0 0 0 0 0 0 0 0 0 0 0 0 0 0 0 0 127 0" result="hardAlpha"/>
<feOffset dy="-1.14572"/>
<feGaussianBlur stdDeviation="2.65993"/>
<feComposite in2="hardAlpha" operator="arithmetic" k2="-1" k3="1"/>
<feColorMatrix type="matrix" values="0 0 0 0 1 0 0 0 0 1 0 0 0 0 1 0 0 0 0.9 0"/>
<feBlend mode="normal" in2="effect1_innerShadow_526_792" result="effect2_innerShadow_526_792"/>
<feGaussianBlur stdDeviation="1.30945" result="effect3_foregroundBlur_526_792"/>
</filter>
<filter id="filter3_f_526_792" x="9.99782" y="13.6043" width="12.0385" height="10.4138" filterUnits="userSpaceOnUse" color-interpolation-filters="sRGB">
<feFlood flood-opacity="0" result="BackgroundImageFix"/>
<feBlend mode="normal" in="SourceGraphic" in2="BackgroundImageFix" result="shape"/>
<feGaussianBlur stdDeviation="1.55504" result="effect1_foregroundBlur_526_792"/>
</filter>
<filter id="filter4_f_526_792" x="-2.05367" y="14.5501" width="12.4833" height="7.92815" filterUnits="userSpaceOnUse" color-interpolation-filters="sRGB">
<feFlood flood-opacity="0" result="BackgroundImageFix"/>
<feBlend mode="normal" in="SourceGraphic" in2="BackgroundImageFix" result="shape"/>
<feGaussianBlur stdDeviation="1.18675" result="effect1_foregroundBlur_526_792"/>
</filter>
<linearGradient id="paint0_linear_526_792" x1="12.5" y1="11.8286" x2="12.5" y2="24.9999" gradientUnits="userSpaceOnUse">
<stop stop-color="#F9C200"/>
<stop offset="1" stop-color="#FDE44D"/>
</linearGradient>
<linearGradient id="paint1_linear_526_792" x1="12.4994" y1="-0.0115316" x2="12.4994" y2="9.27114" gradientUnits="userSpaceOnUse">
<stop stop-color="#FDE44D"/>
<stop offset="0.855" stop-color="#FFFADA"/>
<stop offset="1" stop-color="#FDE44D"/>
</linearGradient>
<clipPath id="clip0_526_792">
<rect width="25" height="25" fill="white"/>
</clipPath>
</defs>
</svg>
