<svg width="22" height="22" fill="none" xmlns="http://www.w3.org/2000/svg"><circle cx="11" cy="11" r="11" fill="#000"/><path d="M7.89276 9.7233 11 6.61613l3.1087 3.10881 1.808-1.80808L11 3 6.08475 7.91527 7.89276 9.7233Zm-3.0847-.53146 1.80798 1.80796-1.80808 1.8081L3 10.9999l1.80806-1.80806Zm3.0847 3.08486L11 15.3838l3.1087-3.1087 1.809 1.8071-.001.0009L11 19l-4.91532-4.9153-.00251-.0024 1.81059-1.8056ZM19 11.0002l-1.808 1.808-1.808-1.808 1.808-1.80804L19 11.0002Z" fill="#F0B90B"/><path d="M12.9982 10.999h.0009L11 9l-2 2 .00272.0028L11 13l2-2-.0018-.001Z" fill="#F0B90B"/></svg>