<svg width="22" height="22" fill="none" xmlns="http://www.w3.org/2000/svg"><circle cx="11" cy="11" r="11" fill="#FAFAFA"/><path d="M8.9911 14.4897c-1.806.021-3.4685-.8575-4.2315-2.422a4.2946 4.2946 0 0 1-.4095-1.8305c0-.63.14-1.2565.4095-1.827a5.6105 5.6105 0 0 1 2.7055-2.758l.882-.4305.861 1.7675-.8855.4305a3.654 3.654 0 0 0-1.7675 1.7815 2.3693 2.3693 0 0 0-.0175 1.995c.63 1.295 2.464 1.708 4.081.9205l.8855-.434.861 1.7675-.8855.4305a5.786 5.786 0 0 1-2.4745.595" fill="#002C65"/><path d="m13.772 16.7748-.8995-1.7465.875-.448c1.5995-.826 2.366-2.5445 1.7045-3.8255-.6615-1.2845-2.4955-1.666-4.095-.8365l-.875.448-.8995-1.75.875-.448c2.562-1.33 5.586-.5635 6.7445 1.68 1.155 2.2505 0 5.159-2.5585 6.4785l-.8715.448Z" fill="#0062E1"/></svg>