<svg width="22" height="22" fill="none" xmlns="http://www.w3.org/2000/svg"><circle cx="11" cy="11" r="11" fill="#000"/><g clip-path="url(#a)"><path d="M11.0005 3c-4.38866 0-8.00001 3.61136-8.00001 8 0 4.3887 3.61135 8 8.00001 8 4.3887 0 8-3.6113 8-8v-.0035C19.0005 6.60977 15.3907 3 11.004 3h-.0035Zm4.2076 8.3781a1.11088 1.11088 0 0 1-.1764.1111.98401.98401 0 0 1-.2217.0641 1.64329 1.64329 0 0 1-.5256 0 3.486 3.486 0 0 1-1.1078-.4427 6.10212 6.10212 0 0 1-.996-.7568c-.157-.1381-.3046-.294-.4522-.45212-.1476-.15817-.2863-.33221-.4157-.48861a.16356.16356 0 0 0-.2305-.03704c-.0799.05144-.1046.15869-.0552.23989.1199.18463.2491.36925.3874.55388.1382.184.277.3528.4246.5256.3042.3431.6444.6523 1.0148.9226a4.1584 4.1584 0 0 0 1.2641.6644c.1569.0451.3174.076.4798.0923.0655.0059.115.0638.1106.1294a.12764.12764 0 0 1-.0183.0552c-.267.4449-.5895.8541-.9595 1.2177-1.0072 1.0559-2.3894 1.6759-3.84776 1.7257a3.59038 3.59038 0 0 1-1.57636-.3316l-.11112-.0552a.13748.13748 0 0 0-.1176 0l-.10113.0646a1.09831 1.09831 0 0 1-.56328.1764.60432.60432 0 0 1-.44275-.1658c-.21173-.2873-.21173-.6817 0-.969l.06467-.1111a.1383.1383 0 0 0 .01314-.0588.1383.1383 0 0 0-.01314-.0588l-.0576-.1158c-.5633-1.0519-.51684-2.436.05525-3.7184a.11766.11766 0 0 1 .04325-.0542.11854.11854 0 0 1 .06624-.0205.11769.11769 0 0 1 .04751.01.1139.1139 0 0 1 .03917.0255.11376.11376 0 0 1 .0255.0392c.10288.2673.23271.5234.38748.7644.2564.3761.5499.7255.87609 1.043.15699.1564.3322.3134.4986.4522.1664.1388.35279.2858.53507.4151a.17672.17672 0 0 0 .08724.0231c.09678 0 .1764-.0796.1764-.1764a.1764.1764 0 0 0-.04199-.1142c-.15699-.1388-.31397-.2864-.47037-.4339-.14759-.157-.294-.3134-.43333-.4704a6.07715 6.07715 0 0 1-.70147-1.0431 3.47638 3.47638 0 0 1-.38747-1.12539 1.68144 1.68144 0 0 1 0-.52917 1.30369 1.30369 0 0 1 .06467-.20285c0-.01823.02764-.04587.03704-.06467.1176-.13819.23989-.27636.36867-.40572 1.66102-1.66103 3.93118-2.19609 5.53638-1.32883l.1176.06468a.1114.1114 0 0 0 .0647.02073.11086.11086 0 0 0 .0646-.02073l.1106-.07408c.2973-.23948.7231-.24506 1.0266-.01352.2384.3148.2268.75643-.0276 1.05835l-.0735.11053a.09508.09508 0 0 0-.0203.0588c0 .02131.0071.04201.0203.0588l.0552.1176c.4165.96299.446 2.05037.0823 3.03457h.0001Z" fill="#00F068"/></g><defs><clipPath id="a"><path fill="#fff" transform="translate(3 3)" d="M0 0h16v16H0z"/></clipPath></defs></svg>