<svg width="22" height="22" fill="none" xmlns="http://www.w3.org/2000/svg"><path d="M21.673 13.6548c-1.4678 5.8893-7.4326 9.4855-13.3327 8.0168C2.451 20.1993-1.1394 14.2344.3284 8.3451 1.7962 2.456 7.7574-1.1402 13.6432.3285c5.9036 1.4507 9.494 7.4336 8.0298 13.3264Z" fill="#0033AD"/><path d="M11.0837 5.4094a.3812.3812 0 0 0 .3989-.4334.3808.3808 0 1 0-.3989.4334ZM14.397 5.598a.2994.2994 0 1 1-.0055-.5987.2994.2994 0 0 1 .0055.5986ZM7.9531 5.5804a.2994.2994 0 1 0-.2735-.5327.2994.2994 0 0 0 .2735.5327ZM8.2451 11.6232a.928.928 0 0 1-.2333-.6702l-.0025.0005a.9257.9257 0 1 1 .9252.9788h-.0506a.9276.9276 0 0 1-.6388-.3091ZM4.3912 10.7593a.2992.2992 0 0 1 .4343.159.2984.2984 0 0 1-.184.3808.2996.2996 0 0 1-.3214-.0832.299.299 0 0 1 .0711-.4566ZM9.0866 7.0331a.4623.4623 0 1 1-.8048-.455.4623.4623 0 0 1 .8048.455ZM5.7314 8.3449a.3809.3809 0 1 0 .4185-.6365.3809.3809 0 0 0-.4185.6365ZM6.0335 10.6131a.463.463 0 0 1 .2607-.0633.4629.4629 0 0 1 .4356.4882.4623.4623 0 1 1-.6963-.4249ZM5.7819 13.6583a.3804.3804 0 0 0-.208.3685.3812.3812 0 0 0 .2607.3332.3802.3802 0 0 0 .4078-.1133.3804.3804 0 0 0 .0514-.42.3798.3798 0 0 0-.221-.1903.3808.3808 0 0 0-.291.0219ZM7.8824 9.6834a.5443.5443 0 1 1-.0097-1.0887.5443.5443 0 0 1 .0097 1.0887ZM13.2811 7.182a.4632.4632 0 0 0 .5142-.0057.4624.4624 0 0 0 .1917-.4771.4631.4631 0 0 0-.9062.1902.4637.4637 0 0 0 .2003.2925ZM13.354 10.0718a.9256.9256 0 0 0-.6693.2332.926.926 0 0 0 .563 1.6157h.0537a.9262.9262 0 0 0 .9142-1.0679.9253.9253 0 0 0-.2243-.4745.914.914 0 0 0-.6373-.3065ZM9.5378 9.9026a.9221.9221 0 0 1-.3413-.3725.9262.9262 0 0 1 .8266-1.341.9227.9227 0 0 1 .8275.5058.9265.9265 0 0 1-.3744 1.2268.9266.9266 0 0 1-.4521.1178.9226.9226 0 0 1-.4863-.1369ZM16.4553 8.3438a.3809.3809 0 1 0-.343-.68.3809.3809 0 0 0 .343.68ZM13.8788 8.8567a.5448.5448 0 0 1 .6444-.2489.5432.5432 0 0 1 .3154.2722.545.545 0 0 1-.0739.6003.5444.5444 0 0 1-.8859-.6236ZM11.3866 7.732a.5442.5442 0 1 1-.553-.9375.5442.5442 0 0 1 .553.9375ZM8.1306 13.3629a.5438.5438 0 0 0 .2978-.5264.5442.5442 0 1 0-.2978.5264ZM11.283 9.1833a.9251.9251 0 0 1 .4832-.8898.9253.9253 0 0 1 1.3371.5885.9256.9256 0 1 1-1.8203.3013ZM13.0409 12.472a.9259.9259 0 0 0-1.7521.3972.9255.9255 0 0 0 .9255.9454.9362.9362 0 0 0 .4168-.1012.9261.9261 0 0 0 .4098-1.2414ZM14.3555 12.318a.5448.5448 0 0 1 .3031.0893.5452.5452 0 0 1 .1563.7537.544.544 0 0 1-.8367.0893.5438.5438 0 0 1-.1228-.5922.5442.5442 0 0 1 .5001-.3401ZM16.4312 11.0167a.463.463 0 0 0-.2608-.4425.4627.4627 0 0 0-.5087.0715.462.462 0 0 0-.1287.4972.4626.4626 0 0 0 .41.3093.4629.4629 0 0 0 .4882-.4355ZM17.5429 10.7282a.2998.2998 0 0 1 .169-.0408.2997.2997 0 0 1 .2218.4794.2999.2999 0 0 1-.4626.0188.2993.2993 0 0 1 .0718-.4574ZM16.5061 13.6568a.3814.3814 0 0 0-.4232.0039.3811.3811 0 0 0-.1585.3924.3808.3808 0 0 0 .6914.1313.3812.3812 0 0 0-.0036-.4234.3841.3841 0 0 0-.1061-.1042ZM7.841 16.4036a.2993.2993 0 1 1 .005.5987.2993.2993 0 0 1-.005-.5987ZM14.2843 16.4213a.2998.2998 0 0 0-.1639.2897.299.299 0 0 0 .2049.2622.3004.3004 0 0 0 .1739.0041.3009.3009 0 0 0 .1468-.0931.3001.3001 0 0 0-.0314-.4225.2994.2994 0 0 0-.3303-.0404ZM10.9544 12.8167a.9253.9253 0 0 1-.1483.5826.9207.9207 0 0 1-.775.4184.9257.9257 0 1 1 .9233-1.001ZM8.9561 14.8203a.4625.4625 0 0 0-.6819.214.4623.4623 0 1 0 .682-.214ZM10.8997 16.6443a.3808.3808 0 1 1 .3863.6564.3808.3808 0 0 1-.3863-.6564ZM11.1186 14.1955a.5443.5443 0 1 0 .5104.5741.5436.5436 0 0 0-.5104-.5741ZM13.1508 14.9694a.4626.4626 0 0 1 .1941-.1861.462.462 0 0 1 .6216.2024.4623.4623 0 0 1-.0602.5109.4631.4631 0 0 1-.4953.1396.462.462 0 0 1-.2204-.1539.4623.4623 0 0 1-.0398-.5129Z" fill="#fff"/></svg>