<svg width="22" height="22" fill="none" xmlns="http://www.w3.org/2000/svg"><path d="M21.673 13.6548c-1.4678 5.8893-7.4326 9.4855-13.3327 8.0168C2.451 20.1993-1.1394 14.2344.3284 8.3451 1.7962 2.456 7.7574-1.1402 13.6432.3285c5.9036 1.4507 9.494 7.4336 8.0298 13.3264Z" fill="#F0B90B"/><path d="M12.7437 5.7851 11.0455 4.046 6.769 8.3632l1.6983 1.6983 4.2764-4.2764ZM15.3219 8.3632 13.6236 6.624 6.769 13.5195l1.6983 1.6983 6.8546-6.8546ZM5.8892 9.2021l1.6983 1.7393-1.6983 1.6982-1.6983-1.6982 1.6983-1.7393ZM17.9 10.9414l-1.6983-1.7393-6.8545 6.8955 1.6983 1.6983L17.9 10.9414Z" fill="#fff"/></svg>