<svg width="22" height="22" fill="none" xmlns="http://www.w3.org/2000/svg"><g clip-path="url(#a)"><path d="M11 22c6.0751 0 11-4.9249 11-11S17.0751 0 11 0 0 4.9249 0 11s4.9249 11 11 11Z" fill="#F7931A"/><path d="M15.9424 9.6387c.2159-1.441-.8821-2.2158-2.3822-2.7328l.4868-1.9525-1.188-.2956-.4744 1.901c-.3121-.0784-.6325-.1513-.9522-.2242l.4778-1.9133-1.188-.2963-.4867 1.9518c-.2585-.0591-.5129-.1169-.759-.1787l.0014-.0062-1.639-.409-.3163 1.269s.882.2022.8635.2145c.4812.1204.5679.4387.5534.6917l-.554 2.224c.033.0083.0755.0206.1237.0392l-.1258-.031-.777 3.1158c-.059.1458-.2082.3651-.5451.2819.0124.0172-.8635-.2152-.8635-.2152l-.5899 1.3599 1.5469.3857c.2874.0722.5692.1478.8463.2186l-.4916 1.9745 1.1873.2956.4868-1.9525c.3245.0873.6394.1685.9474.2455l-.4854 1.9442 1.188.2956.4916-1.9703c2.0267.3836 3.5502.2289 4.1916-1.604.517-1.4753-.0254-2.3272-1.0917-2.882.7769-.1787 1.3612-.6895 1.5173-1.7448Zm-2.7156 3.8074c-.3665 1.4761-2.8518.6779-3.6575.4778l.6531-2.6159c.8058.2014 3.3887.5995 3.0044 2.1381Zm.3678-3.8287c-.3348 1.3427-2.4028.66-3.0731.493l.5912-2.3719c.6703.167 2.8311.4785 2.4819 1.879Z" fill="#fff"/></g><defs><clipPath id="a"><path fill="#fff" d="M0 0h22v22H0z"/></clipPath></defs></svg>