<svg width="22" height="22" fill="none" xmlns="http://www.w3.org/2000/svg"><path d="M21.673 13.6548c-1.4678 5.8893-7.4326 9.4855-13.3327 8.0168C2.451 20.1993-1.1394 14.2344.3284 8.3451 1.7962 2.456 7.7574-1.1402 13.6432.3285c5.9036 1.4507 9.494 7.4336 8.0298 13.3264Z" fill="#E6007A"/><path d="M13.5323 5.133c0 .8601-1.1988 1.5574-2.6777 1.5574-1.4788 0-2.6776-.6973-2.6776-1.5574 0-.86 1.1988-1.5573 2.6776-1.5573 1.4789 0 2.6777.6972 2.6777 1.5573ZM13.5323 16.8673c0 .8601-1.1988 1.5573-2.6777 1.5573-1.4788 0-2.6776-.6972-2.6776-1.5573 0-.8601 1.1988-1.5574 2.6776-1.5574 1.4789 0 2.6777.6973 2.6777 1.5574ZM7.1231 8.846c.7394-1.2806.7347-2.6677-.0107-3.098-.7453-.4303-1.949.259-2.6884 1.5397-.7394 1.2807-.7346 2.6677.0107 3.0981.7454.4303 1.949-.259 2.6884-1.5397ZM17.2744 11.615c.7448.43.7492 1.8168.0098 3.0975-.7394 1.2807-1.9426 1.9703-2.6875 1.5402-.7448-.43-.7492-1.8168-.0098-3.0975.7394-1.2807 1.9427-1.9703 2.6875-1.5402ZM7.113 16.2524c.7453-.4304.75-1.8174.0107-3.0981-.7395-1.2807-1.9431-1.97-2.6884-1.5397-.7454.4304-.7502 1.8174-.0108 3.0981.7395 1.2807 1.9431 1.97 2.6884 1.5397ZM17.2848 7.2885c.7394 1.2807.735 2.6675-.0099 3.0976-.7448.43-1.948-.2595-2.6874-1.5402-.7395-1.2807-.7351-2.6675.0098-3.0976.7448-.43 1.948.2596 2.6875 1.5402Z" fill="#fff"/></svg>