<svg width="22" height="22" fill="none" xmlns="http://www.w3.org/2000/svg"><path d="M21.673 13.6548c-1.4678 5.8893-7.4326 9.4855-13.3327 8.0168C2.451 20.1993-1.1394 14.2344.3284 8.3451 1.7962 2.456 7.7574-1.1402 13.6432.3285c5.9036 1.4507 9.494 7.4336 8.0298 13.3264Z" fill="#547FEF"/><path d="M11.1379 13.6675c-.0428.0145-.0671-.0227-.0962-.0398a3122.0169 3122.0169 0 0 1-4.269-2.524.299.299 0 0 0-.0427-.0175v-.0188l.0252-.0145a1.0007 1.0007 0 0 0 .1056-.0342l3.3569-1.5274c.2992-.1364.5984-.2706.8975-.4056h.0214v.1214c.0011 1.4869.0016 2.9737.0013 4.4604Z" fill="#C1CDF6"/><path d="M11.14 9.0867h-.0214c0-.0427.0043-.0855.0043-.1303v-5.011a.3594.3594 0 0 1 .0085-.1281h.009c.1757.2594.3287.5329.4902.8009 1.2798 2.1228 2.559 4.2454 3.8374 6.3677.0124.021.0222.0428.0333.0659a.7543.7543 0 0 1-.1064-.0312 68.2652 68.2652 0 0 1-.7026-.3219c-.3641-.1666-.7284-.333-1.0928-.4991l-1.7556-.7954c-.2338-.1076-.4689-.2124-.7039-.3175Z" fill="#C1CDF6"/><path d="M11.1328 3.815a.3595.3595 0 0 0-.0085.1283V8.954c0 .0428-.0026.0855-.0043.1304-.2991.135-.5983.2692-.8974.4056l-3.357 1.5274a.978.978 0 0 1-.1056.0342c.097-.2017.2231-.3847.338-.5778C8.43 8.2599 9.763 6.0462 11.097 3.833a.374.374 0 0 1 .0287-.035l.0072.017Z" fill="#fff"/><path d="M11.14 9.0867c.235.1051.4702.2099.7048.3159l1.7556.7953c.3647.1658.729.3322 1.0928.4992.2342.1072.4701.2158.7026.3218a.7543.7543 0 0 0 .1064.0312c.0428.0534-.0205.0555-.0397.0671-.3646.2179-.7308.4329-1.0962.6492l-3.1455 1.8611c-.0265.0154-.0552.0267-.0829.04V9.2081c.0004-.0406.0017-.0808.0021-.1214Z" fill="#8198EE"/><path d="m11.1228 14.5118 2.7459-1.6184c.5242-.3094 1.0482-.6191 1.5719-.9291l.0474-.0261c.0047.0428-.0248.0654-.0427.0902-1.1967 1.687-2.3933 3.3734-3.5899 5.0592-.2265.3197-.4526.641-.6813.9581-.0119.0167-.0303.0949-.0671.012.0291-.0248.0163-.0581.0163-.0855.0003-1.1539.0001-2.3073-.0005-3.4604Z" fill="#C1CDF6"/><path d="M11.1226 14.5121v3.4582c0 .0295.0128.0628-.0162.0855-.0611-.0368-.0876-.1026-.1282-.1569a11205.3575 11205.3575 0 0 1-4.1605-5.8643c-.0175-.0248-.0337-.0513-.0517-.0786.036-.021.0551.0077.076.02a5310.478 5310.478 0 0 1 4.2088 2.4878c.0261.0162.0483.0329.0718.0483Z" fill="#fff"/><path d="m11.1332 3.815-.0103-.0158c.0188-.012.0162.0056.0192.0145l-.0089.0013Z" fill="#C1CDF6"/></svg>