<svg width="22" height="22" fill="none" xmlns="http://www.w3.org/2000/svg"><path d="M21.673 13.6548c-1.4678 5.8893-7.4326 9.4855-13.3327 8.0168C2.451 20.1993-1.1394 14.2344.3284 8.3451 1.7962 2.456 7.7574-1.1402 13.6432.3285c5.9036 1.4507 9.494 7.4336 8.0298 13.3264Z" fill="#000008"/><path d="m17.7944 14.3962-2.2698 2.3715a.529.529 0 0 1-.1754.1207.5393.5393 0 0 1-.2102.0425H4.3788a.268.268 0 0 1-.1445-.0421.2581.2581 0 0 1-.0972-.1123.2508.2508 0 0 1-.018-.1459.2544.2544 0 0 1 .067-.1316l2.2716-2.3715a.5259.5259 0 0 1 .1748-.1204.538.538 0 0 1 .2096-.0427h10.7596a.2685.2685 0 0 1 .1445.042.26.26 0 0 1 .0973.1123.2513.2513 0 0 1 .0179.1459.2544.2544 0 0 1-.067.1316Zm-2.2698-4.7755a.5285.5285 0 0 0-.1754-.1207.5393.5393 0 0 0-.2102-.0425H4.3788a.2684.2684 0 0 0-.1445.042.2586.2586 0 0 0-.0972.1124.2507.2507 0 0 0-.018.1459.2544.2544 0 0 0 .067.1316l2.2716 2.3715a.5273.5273 0 0 0 .1748.1204.538.538 0 0 0 .2096.0427h10.7596a.2685.2685 0 0 0 .1445-.042.26.26 0 0 0 .0973-.1123.2513.2513 0 0 0 .0179-.1459.2544.2544 0 0 0-.067-.1316l-2.2698-2.3715ZM4.3788 7.9172H15.139a.5393.5393 0 0 0 .2102-.0425.5284.5284 0 0 0 .1754-.1206l2.2698-2.3716a.2543.2543 0 0 0 .067-.1316.2512.2512 0 0 0-.0179-.1458.2598.2598 0 0 0-.0973-.1124.2684.2684 0 0 0-.1445-.042H6.8421a.5392.5392 0 0 0-.2096.0427.5274.5274 0 0 0-.1749.1204l-2.271 2.3716a.2543.2543 0 0 0-.067.1314.2507.2507 0 0 0 .018.1458.2585.2585 0 0 0 .0969.1123.2686.2686 0 0 0 .1443.0423Z" fill="url(#a)"/><defs><linearGradient id="a" x1="5.2759" y1="17.2164" x2="16.2307" y2="4.5401" gradientUnits="userSpaceOnUse"><stop offset=".08" stop-color="#9945FF"/><stop offset=".3" stop-color="#8752F3"/><stop offset=".5" stop-color="#5497D5"/><stop offset=".6" stop-color="#43B4CA"/><stop offset=".72" stop-color="#28E0B9"/><stop offset=".97" stop-color="#19FB9B"/></linearGradient></defs></svg>