<svg width="22" height="22" fill="none" xmlns="http://www.w3.org/2000/svg"><path d="M21.673 13.6548c-1.4678 5.8893-7.4326 9.4855-13.3327 8.0168C2.451 20.1993-1.1394 14.2344.3284 8.3451 1.7962 2.456 7.7574-1.1402 13.6432.3285c5.9036 1.4507 9.494 7.4336 8.0298 13.3264Z" fill="url(#a)"/><path d="M11.6847 11.5764h3.5167c.0749 0 .1103 0 .1157-.0983a6.7072 6.7072 0 0 0 0-1.0757c0-.0696-.0345-.0983-.1099-.0983H8.2085c-.0866 0-.11.0287-.11.1099v1.0295c0 .1329 0 .1329.1387.1329h3.4475Zm3.2397-2.4755a.1125.1125 0 0 0 0-.0808 2.2852 2.2852 0 0 0-.2091-.3644 2.9482 2.9482 0 0 0-.4281-.538 1.4193 1.4193 0 0 0-.2661-.2603 4.1578 4.1578 0 0 0-1.7354-.8792 4.3142 4.3142 0 0 0-.9833-.1041h-3.106c-.0866 0-.0983.0346-.0983.11v2.0531c0 .0866 0 .11.11.11h6.6747s.0578-.0117.0695-.0463h-.0283.0004Zm0 3.6787a1.341 1.341 0 0 0-.2957 0H8.2143c-.0866 0-.1158 0-.1158.1157v2.0074c0 .0925 0 .1158.1158.1158h2.9615c.1416.0108.2832.0008.4219-.0288a4.4098 4.4098 0 0 0 1.2556-.2777 2.3012 2.3012 0 0 0 .4219-.1966h.0404a3.7584 3.7584 0 0 0 1.6138-1.6246s.0404-.0875-.005-.1104v-.0008Zm-7.9882 3.2796V12.8608c0-.0754 0-.0866-.0925-.0866H5.5885c-.0695 0-.0983 0-.0983-.0925v-1.0991h1.3419c.075 0 .1041 0 .1041-.0982V10.397c0-.0696 0-.0867-.0925-.0867H5.5885c-.0695 0-.0983 0-.0983-.0924V9.2c0-.0637 0-.0807.0925-.0807h1.2435c.0867 0 .11 0 .11-.11V5.8917c0-.0925 0-.1158.1158-.1158h4.3379c.3148.0125.6276.047.937.1041a5.6543 5.6543 0 0 1 1.8104.671 5.1001 5.1001 0 0 1 1.0178.7866c.2291.2378.4356.4952.6189.7692.182.2778.3332.5747.4519.885a.1505.1505 0 0 0 .1728.1216h1.0353c.1329 0 .1329 0 .1387.1275v.9487c0 .0924-.0346.1157-.1274.1157h-.7984c-.0808 0-.1041 0-.0983.1042a5.8993 5.8993 0 0 1 0 1.0582c0 .0983 0 .1099.1104.1099h.9133c.0404.0521 0 .1042 0 .1566.0058.0671.0058.135 0 .202v.7001c0 .0983-.0288.1274-.1158.1274h-1.0932a.1449.1449 0 0 0-.1679.11 4.625 4.625 0 0 1-1.2148 1.77 6.9631 6.9631 0 0 1-.6188.4972c-.2316.1333-.4569.272-.6943.3819a6.2564 6.2564 0 0 1-1.3652.4336 7.117 7.117 0 0 1-1.3535.1099H6.9345v-.0058l.0017-.0013Z" fill="#fff"/><path d="M12.6847 11.5764h3.5167c.0749 0 .1103 0 .1157-.0983a6.7072 6.7072 0 0 0 0-1.0757c0-.0696-.0345-.0983-.1099-.0983H9.2085c-.0866 0-.11.0287-.11.1099v1.0295c0 .1329 0 .1329.1387.1329h3.4475Zm3.2397-2.4755a.1125.1125 0 0 0 0-.0808 2.2852 2.2852 0 0 0-.2091-.3644 2.9482 2.9482 0 0 0-.4281-.538 1.4193 1.4193 0 0 0-.2661-.2603 4.1578 4.1578 0 0 0-1.7354-.8792 4.3142 4.3142 0 0 0-.9833-.1041h-3.106c-.0866 0-.0983.0346-.0983.11v2.0531c0 .0866 0 .11.11.11h6.6747s.0578-.0117.0695-.0463h-.0283.0004Zm0 3.6787a1.341 1.341 0 0 0-.2957 0H9.2143c-.0866 0-.1158 0-.1158.1157v2.0074c0 .0925 0 .1158.1158.1158h2.9615c.1416.0108.2832.0008.4219-.0288a4.4098 4.4098 0 0 0 1.2556-.2777 2.3012 2.3012 0 0 0 .4219-.1966h.0404a3.7584 3.7584 0 0 0 1.6138-1.6246s.0404-.0875-.005-.1104v-.0008Zm-7.9882 3.2796V12.8608c0-.0754 0-.0866-.0925-.0866H6.5885c-.0695 0-.0983 0-.0983-.0925v-1.0991h1.3419c.075 0 .1041 0 .1041-.0982V10.397c0-.0696 0-.0867-.0925-.0867H6.5885c-.0695 0-.0983 0-.0983-.0924V9.2c0-.0637 0-.0807.0925-.0807h1.2435c.0867 0 .11 0 .11-.11V5.8917c0-.0925 0-.1158.1158-.1158h4.3379c.3148.0125.6276.047.937.1041a5.6543 5.6543 0 0 1 1.8104.671 5.1001 5.1001 0 0 1 1.0178.7866c.2291.2378.4356.4952.6189.7692.182.2778.3332.5747.4519.885a.1505.1505 0 0 0 .1728.1216h1.0353c.1329 0 .1329 0 .1387.1275v.9487c0 .0924-.0346.1157-.1274.1157h-.7984c-.0808 0-.1041 0-.0983.1042a5.8993 5.8993 0 0 1 0 1.0582c0 .0983 0 .1099.1104.1099h.9133c.0404.0521 0 .1042 0 .1566.0058.0671.0058.135 0 .202v.7001c0 .0983-.0288.1274-.1158.1274h-1.0932a.1449.1449 0 0 0-.1679.11 4.625 4.625 0 0 1-1.2148 1.77 6.9631 6.9631 0 0 1-.6188.4972c-.2316.1333-.4569.272-.6943.3819a6.2564 6.2564 0 0 1-1.3652.4336 7.117 7.117 0 0 1-1.3535.1099H7.9345v-.0058l.0017-.0013Z" fill="#fff"/><path d="M21.673 13.6548c-1.4678 5.8893-7.4326 9.4855-13.3327 8.0168C2.451 20.1993-1.1394 14.2344.3284 8.3451 1.7962 2.456 7.7574-1.1402 13.6432.3285c5.9036 1.4507 9.494 7.4336 8.0298 13.3264Z" fill="#2775CA"/><path d="M4.596 8.5716c-1.3293 3.5293.5041 7.5168 4.0791 8.8.1375.0918.275.275.275.4125v.6418c0 .0916 0 .1375-.0459.1832-.0457.1834-.229.275-.4125.1834-2.5666-.825-4.5375-2.7959-5.3625-5.3625-1.375-4.3541 1.0084-8.9834 5.3625-10.3584.046-.0457.1375-.0457.1834-.0457.1834.0457.275.1832.275.3666v.6416c0 .2293-.0916.3668-.275.4584C6.796 5.18 5.2835 6.6466 4.596 8.5716ZM13.121 3.255c.0457-.1834.2291-.275.4125-.1834 2.5207.825 4.5375 2.796 5.3625 5.4084 1.375 4.3541-1.0084 8.9834-5.3625 10.3584-.0459.0457-.1375.0457-.1834.0457-.1834-.0457-.275-.1832-.275-.3666v-.6416c0-.2293.0916-.3668.275-.4584 1.8791-.6875 3.3916-2.1541 4.0791-4.0791 1.3293-3.5293-.5041-7.5168-4.0791-8.8-.1375-.0918-.275-.275-.275-.4584v-.6416c0-.0918 0-.1375.0459-.1834Z" fill="#fff"/><path d="M11.1501 10.1759c1.925.2291 2.8875.7791 2.8875 2.3833 0 1.2375-.9167 2.2-2.2917 2.4292v1.1c-.0458.2291-.1833.3666-.3667.3666h-.6875c-.2291-.0458-.3666-.1833-.3666-.3666v-1.1c-1.5125-.2292-2.2459-1.0542-2.4292-2.2v-.0459c0-.1833.1376-.3208.3208-.3208h.7793c.1374 0 .275.0917.3207.275.1375.6875.55 1.1917 1.7417 1.1917.8708 0 1.5125-.5041 1.5125-1.2375s-.4125-1.0084-1.6958-1.2375c-1.925-.2292-2.8416-.825-2.8416-2.3375 0-1.1459.8707-2.0625 2.2457-2.2459V5.776c.0459-.2293.1834-.3668.3667-.3668h.6875c.2292.0458.3667.1833.3667.3667v1.1c1.0541.0916 1.8791.8708 2.0625 1.8791v.046c0 .1832-.1375.3207-.3209.3207h-.7333c-.1375 0-.275-.0917-.3208-.2292-.2292-.6875-.6875-.9625-1.5125-.9625-.9167 0-1.375.4124-1.375 1.0542 0 .6417.275 1.0083 1.65 1.1917Z" fill="#fff"/><defs><linearGradient id="a" x1="11" y1="0" x2="11" y2="22" gradientUnits="userSpaceOnUse"><stop stop-color="#F9AA11"/><stop offset="1" stop-color="#F9C757"/></linearGradient></defs></svg>